<?xml version="1.0" encoding="UTF-8"?>
<!DOCTYPE svg PUBLIC "-//W3C//DTD SVG 1.1//EN" "http://www.w3.org/Graphics/SVG/1.1/DTD/svg11.dtd">
<svg version="1.1" xmlns="http://www.w3.org/2000/svg" xmlns:xlink="http://www.w3.org/1999/xlink" width="2000" height="600"  xml:space="preserve" id="pureSwiftBluetoothLinux">
    <!-- Generated by PaintCode - http://www.paintcodeapp.com -->
    <defs>
        <filter id="pureSwiftBluetoothLinux-shadow-outer" filterUnits="userSpaceOnUse">
            <feGaussianBlur stdDeviation="4" />
            <feOffset dx="895" dy="5" result="blur" />
            <feFlood flood-color="rgb(0, 0, 0)" flood-opacity="0.1" />
            <feComposite in2="blur" operator="in" result="colorShadow" />
            <feComposite in="SourceGraphic" in2="colorShadow" operator="over" />
        </filter>
        <pattern id="pureSwiftBluetoothLinux-_280pxTuxsvg2-picture" x="1" y="0" width="560" height="660" patternUnits="userSpaceOnUse" viewBox="0 0 560 660">
            <image xlink:href="images/_280pxTuxsvg2.png" x="0" y="0" width="280" height="330" />
        </pattern>
    </defs>
    <g id="pureSwiftBluetoothLinux-group" clip-path="url(#pureSwiftBluetoothLinux-clip)">
        <clipPath id="pureSwiftBluetoothLinux-clip">
        </clipPath>
        <path id="pureSwiftBluetoothLinux-bezier" fill-rule="evenodd" stroke="none" fill="rgb(146, 146, 146)" filter="url(#pureSwiftBluetoothLinux-shadow-outer)" d="M 268.43,350.61 C 296.92,328.43 296.91,292.46 268.43,270.28 L 151.49,179.24 C 122.99,157.05 76.8,157.06 48.31,179.24 L -68.63,270.28 C -97.12,292.46 -97.12,328.43 -68.63,350.61 L 48.31,441.66 C 76.8,463.84 123,463.84 151.49,441.66 L 268.43,350.61 Z M 268.43,350.61" />
    </g>
    <g id="pureSwiftBluetoothLinux-group2" clip-path="url(#pureSwiftBluetoothLinux-clip3)">
        <clipPath id="pureSwiftBluetoothLinux-clip3">
            <path d="M 784.06,141.66 L 1205.73,141.66 1205.73,479.23 784.06,479.23 784.06,141.66 Z M 1164,351.35 C 1192.98,328.79 1192.97,292.1 1164,269.54 L 1047.06,178.5 C 1018.23,156.05 971.56,156.05 942.73,178.5 L 825.79,269.54 C 796.82,292.1 796.82,328.8 825.79,351.35 L 942.73,442.4 C 971.56,464.84 1018.23,464.84 1047.06,442.4 L 1164,351.35 Z M 1162.85,349.87 L 1045.91,440.92 C 1017.76,462.83 972.03,462.83 943.88,440.92 L 826.94,349.87 C 798.94,328.07 798.94,292.83 826.94,271.02 L 943.88,179.98 C 972.03,158.06 1017.76,158.06 1045.91,179.98 L 1162.85,271.02 C 1190.86,292.83 1190.86,328.07 1162.85,349.87 Z M 1162.85,349.87" />
        </clipPath>
        <g id="pureSwiftBluetoothLinux-group3" clip-path="url(#pureSwiftBluetoothLinux-clip2)">
            <clipPath id="pureSwiftBluetoothLinux-clip2">
                <path d="M 1163.43,350.61 C 1191.92,328.43 1191.91,292.46 1163.43,270.28 L 1046.49,179.24 C 1017.99,157.05 971.8,157.06 943.31,179.24 L 826.37,270.28 C 797.88,292.46 797.88,328.43 826.37,350.61 L 943.31,441.66 C 971.8,463.84 1018,463.84 1046.49,441.66 L 1163.43,350.61 Z M 1163.43,350.61" />
            </clipPath>
            <path id="pureSwiftBluetoothLinux-bezier2" fill-rule="evenodd" stroke="none" fill="rgb(82, 153, 218)" d="M 1163.43,350.61 C 1191.92,328.43 1191.91,292.46 1163.43,270.28 L 1046.49,179.24 C 1017.99,157.05 971.8,157.06 943.31,179.24 L 826.37,270.28 C 797.88,292.46 797.88,328.43 826.37,350.61 L 943.31,441.66 C 971.8,463.84 1018,463.84 1046.49,441.66 L 1163.43,350.61 Z M 1163.43,350.61" />
        </g>
    </g>
    <g id="pureSwiftBluetoothLinux-group4" clip-path="url(#pureSwiftBluetoothLinux-clip4)">
        <clipPath id="pureSwiftBluetoothLinux-clip4">
            <path d="M 1163.43,350.61 C 1191.92,328.43 1191.91,292.46 1163.43,270.28 L 1046.49,179.24 C 1017.99,157.05 971.8,157.06 943.31,179.24 L 826.37,270.28 C 797.88,292.46 797.88,328.43 826.37,350.61 L 943.31,441.66 C 971.8,463.84 1018,463.84 1046.49,441.66 L 1163.43,350.61 Z M 1163.43,350.61" />
        </clipPath>
        <path id="pureSwiftBluetoothLinux-bezier5" stroke="rgb(97, 179, 255)" stroke-width="3.75" stroke-miterlimit="10" fill="none" d="M 1163.43,350.61 C 1191.92,328.43 1191.91,292.46 1163.43,270.28 L 1046.49,179.24 C 1017.99,157.05 971.8,157.06 943.31,179.24 L 826.37,270.28 C 797.88,292.46 797.88,328.43 826.37,350.61 L 943.31,441.66 C 971.8,463.84 1018,463.84 1046.49,441.66 L 1163.43,350.61 Z M 1163.43,350.61" />
    </g>
    <g id="pureSwiftBluetoothLinux-group5" clip-path="url(#pureSwiftBluetoothLinux-clip5)">
        <clipPath id="pureSwiftBluetoothLinux-clip5">
        </clipPath>
        <path id="pureSwiftBluetoothLinux-bezier7" fill-rule="evenodd" stroke="none" fill="rgb(146, 146, 146)" filter="url(#pureSwiftBluetoothLinux-shadow-outer)" d="M 268.43,287.31 C 296.92,265.13 296.91,229.16 268.43,206.98 L 151.49,115.94 C 122.99,93.75 76.8,93.76 48.31,115.94 L -68.63,206.98 C -97.12,229.16 -97.12,265.13 -68.63,287.31 L 48.31,378.36 C 76.8,400.54 123,400.54 151.49,378.36 L 268.43,287.31 Z M 268.43,287.31" />
    </g>
    <g id="pureSwiftBluetoothLinux-group6" clip-path="url(#pureSwiftBluetoothLinux-clip6)">
        <clipPath id="pureSwiftBluetoothLinux-clip6">
            <path d="M 1163.43,287.31 C 1191.92,265.13 1191.91,229.16 1163.43,206.98 L 1046.49,115.94 C 1017.99,93.75 971.8,93.76 943.31,115.94 L 826.37,206.98 C 797.88,229.16 797.88,265.13 826.37,287.31 L 943.31,378.36 C 971.8,400.54 1018,400.54 1046.49,378.36 L 1163.43,287.31 Z M 1163.43,287.31" />
        </clipPath>
        <path id="pureSwiftBluetoothLinux-bezier8" fill-rule="evenodd" stroke="none" fill="rgb(0, 96, 169)" d="M 1163.43,287.31 C 1191.92,265.13 1191.91,229.16 1163.43,206.98 L 1046.49,115.94 C 1017.99,93.75 971.8,93.76 943.31,115.94 L 826.37,206.98 C 797.88,229.16 797.88,265.13 826.37,287.31 L 943.31,378.36 C 971.8,400.54 1018,400.54 1046.49,378.36 L 1163.43,287.31 Z M 1163.43,287.31" />
    </g>
    <g id="pureSwiftBluetoothLinux-group7" clip-path="url(#pureSwiftBluetoothLinux-clip7)">
        <clipPath id="pureSwiftBluetoothLinux-clip7">
            <path d="M 1163.43,287.31 C 1191.92,265.13 1191.91,229.16 1163.43,206.98 L 1046.49,115.94 C 1017.99,93.75 971.8,93.76 943.31,115.94 L 826.37,206.98 C 797.88,229.16 797.88,265.13 826.37,287.31 L 943.31,378.36 C 971.8,400.54 1018,400.54 1046.49,378.36 L 1163.43,287.31 Z M 1163.43,287.31" />
        </clipPath>
        <path id="pureSwiftBluetoothLinux-bezier10" stroke="none" fill="none" d="M 1163.43,287.31 C 1191.92,265.13 1191.91,229.16 1163.43,206.98 L 1046.49,115.94 C 1017.99,93.75 971.8,93.76 943.31,115.94 L 826.37,206.98 C 797.88,229.16 797.88,265.13 826.37,287.31 L 943.31,378.36 C 971.8,400.54 1018,400.54 1046.49,378.36 L 1163.43,287.31 Z M 1163.43,287.31" />
    </g>
    <g id="pureSwiftBluetoothLinux-group8" clip-path="url(#pureSwiftBluetoothLinux-clip8)">
        <clipPath id="pureSwiftBluetoothLinux-clip8">
        </clipPath>
        <path id="pureSwiftBluetoothLinux-bezier12" fill-rule="evenodd" stroke="none" fill="rgb(146, 146, 146)" filter="url(#pureSwiftBluetoothLinux-shadow-outer)" d="M 268.43,224.01 C 296.92,201.83 296.91,165.86 268.43,143.68 L 151.49,52.64 C 122.99,30.45 76.8,30.46 48.31,52.64 L -68.63,143.68 C -97.12,165.86 -97.12,201.83 -68.63,224.01 L 48.31,315.06 C 76.8,337.24 123,337.24 151.49,315.06 L 268.43,224.01 Z M 268.43,224.01" />
    </g>
    <g id="pureSwiftBluetoothLinux-group9" clip-path="url(#pureSwiftBluetoothLinux-clip10)">
        <clipPath id="pureSwiftBluetoothLinux-clip10">
            <path d="M 784.06,15.06 L 1205.73,15.06 1205.73,352.63 784.06,352.63 784.06,15.06 Z M 1164,224.75 C 1192.98,202.19 1192.97,165.5 1164,142.94 L 1047.06,51.9 C 1018.23,29.45 971.56,29.45 942.73,51.9 L 825.79,142.94 C 796.82,165.5 796.82,202.2 825.79,224.75 L 942.73,315.8 C 971.56,338.24 1018.23,338.24 1047.06,315.8 L 1164,224.75 Z M 1162.85,223.27 L 1045.91,314.32 C 1017.76,336.23 972.03,336.23 943.88,314.32 L 826.94,223.27 C 798.94,201.47 798.94,166.23 826.94,144.42 L 943.88,53.38 C 972.03,31.46 1017.76,31.46 1045.91,53.38 L 1162.85,144.42 C 1190.86,166.23 1190.86,201.47 1162.85,223.27 Z M 1162.85,223.27" />
        </clipPath>
        <g id="pureSwiftBluetoothLinux-group10" clip-path="url(#pureSwiftBluetoothLinux-clip9)">
            <clipPath id="pureSwiftBluetoothLinux-clip9">
                <path d="M 1163.43,224.01 C 1191.92,201.83 1191.91,165.86 1163.43,143.68 L 1046.49,52.64 C 1017.99,30.45 971.8,30.46 943.31,52.64 L 826.37,143.68 C 797.88,165.86 797.88,201.83 826.37,224.01 L 943.31,315.06 C 971.8,337.24 1018,337.24 1046.49,315.06 L 1163.43,224.01 Z M 1163.43,224.01" />
            </clipPath>
            <path id="pureSwiftBluetoothLinux-bezier13" fill-rule="evenodd" stroke="none" fill="rgb(255, 255, 255)" d="M 1163.43,224.01 C 1191.92,201.83 1191.91,165.86 1163.43,143.68 L 1046.49,52.64 C 1017.99,30.45 971.8,30.46 943.31,52.64 L 826.37,143.68 C 797.88,165.86 797.88,201.83 826.37,224.01 L 943.31,315.06 C 971.8,337.24 1018,337.24 1046.49,315.06 L 1163.43,224.01 Z M 1163.43,224.01" />
        </g>
    </g>
    <g id="pureSwiftBluetoothLinux-group11" clip-path="url(#pureSwiftBluetoothLinux-clip11)">
        <clipPath id="pureSwiftBluetoothLinux-clip11">
            <path d="M 1163.43,224.01 C 1191.92,201.83 1191.91,165.86 1163.43,143.68 L 1046.49,52.64 C 1017.99,30.45 971.8,30.46 943.31,52.64 L 826.37,143.68 C 797.88,165.86 797.88,201.83 826.37,224.01 L 943.31,315.06 C 971.8,337.24 1018,337.24 1046.49,315.06 L 1163.43,224.01 Z M 1163.43,224.01" />
        </clipPath>
        <path id="pureSwiftBluetoothLinux-bezier16" stroke="rgb(230, 230, 230)" stroke-width="3.75" stroke-miterlimit="10" fill="none" d="M 1163.43,224.01 C 1191.92,201.83 1191.91,165.86 1163.43,143.68 L 1046.49,52.64 C 1017.99,30.45 971.8,30.46 943.31,52.64 L 826.37,143.68 C 797.88,165.86 797.88,201.83 826.37,224.01 L 943.31,315.06 C 971.8,337.24 1018,337.24 1046.49,315.06 L 1163.43,224.01 Z M 1163.43,224.01" />
    </g>
    
    <text  fill="rgb(163, 163, 163)" font-family="HelveticaNeue-Thin, 'Helvetica Neue', Helvetica, Arial, sans-serif" font-size="48" x="857.02" y="505" text-anchor="middle"><tspan x="1003.02" y="550">BluetoothLinux</tspan></text>
    <g id="pureSwiftBluetoothLinux-group12" transform="translate(883, 159.59) rotate(-41.17) scale(0.53, 0.52)" >
        <rect id="pureSwiftBluetoothLinux-picture" stroke="none" fill="url(#pureSwiftBluetoothLinux-_280pxTuxsvg2-picture)" x="1" y="0" width="280" height="330" />
    </g>
</svg>
